<?xml version="1.0" encoding="UTF-8"?>
<svg width="3719px" height="1121px" viewBox="0 0 3719 1121" version="1.1" xmlns="http://www.w3.org/2000/svg" xmlns:xlink="http://www.w3.org/1999/xlink">
    <!-- Generator: Sketch 52.6 (67491) - http://www.bohemiancoding.com/sketch -->
    <title>logo-name-inline-black-text</title>
    <desc>Created with Sketch.</desc>
    <g id="logo-name-inline-black-text" stroke="none" stroke-width="1" fill="none" fill-rule="evenodd">
        <g id="Group">
            <rect id="Rectangle" fill="#40C4FF" x="0" y="0" width="215.070689" height="1120.37471"></rect>
            <polygon id="Rectangle" fill="#40C4FF" transform="translate(399.895075, 107.555972) rotate(90.000000) translate(-399.895075, -107.555972) " points="292.339103 -292.339103 507.451047 -181.437679 507.451047 507.451047 292.339103 507.451047"></polygon>
            <polygon id="Rectangle" fill="#40C4FF" transform="translate(282.840360, 560.187354) rotate(90.000000) translate(-282.840360, -560.187354) " points="175.284388 277.346994 390.396332 388.241729 390.396332 843.027713 175.284388 843.027713"></polygon>
            <polygon id="Rectangle" fill="#40C4FF" transform="translate(166.344840, 1012.818735) rotate(90.000000) translate(-166.344840, -1012.818735) " points="58.7888681 846.473895 273.900812 958.448611 273.900812 1179.16358 58.7888681 1179.16358"></polygon>
            <polygon id="Rectangle" fill="#40C4FF" transform="translate(376.373706, 1012.818735) rotate(90.000000) translate(-376.373706, -1012.818735) " points="268.817734 1012.81653 483.929678 1124.83472 483.929678 1012.81653 268.817734 900.802751"></polygon>
            <polygon id="Rectangle" fill="#00B0FF" transform="translate(532.075924, 1012.818735) rotate(90.000000) translate(-532.075924, -1012.818735) " points="424.519952 1012.81653 639.631896 1124.83472 639.631896 1012.81653 424.519952 900.802751"></polygon>
            <polygon id="Rectangle" fill="#0091EA" transform="translate(687.778142, 1012.818735) rotate(90.000000) translate(-687.778142, -1012.818735) " points="580.22217 1012.81653 795.334114 1124.83472 795.334114 1012.81653 580.22217 900.802751"></polygon>
            <path d="M221.21261,1120.37471 L799.808263,0" id="Path"></path>
        </g>
        <path d="M1056,772.58427 L1056,340 L1292.68539,340 L1292.68539,364.719101 L1082.57303,364.719101 L1082.57303,542.078652 L1254.98876,542.078652 L1254.98876,566.797753 L1082.57303,566.797753 L1082.57303,747.865169 L1304.42697,747.865169 L1304.42697,772.58427 L1056,772.58427 Z M1393.41573,710.168539 L1393.41573,340 L1419.37079,340 L1419.37079,702.134831 C1419.37079,745.393258 1441.61798,750.337079 1455.83146,750.337079 C1460.77528,750.337079 1465.10112,749.719101 1465.10112,749.719101 L1465.10112,773.820225 C1465.10112,773.820225 1459.53933,775.05618 1453.97753,775.05618 C1436.05618,775.05618 1393.41573,768.258427 1393.41573,710.168539 Z M1513.30337,690.393258 C1513.30337,585.337079 1649.8764,584.101124 1704.8764,584.101124 L1725.26966,584.101124 L1725.26966,573.595506 C1725.26966,505 1690.04494,481.516854 1640.60674,481.516854 C1586.8427,481.516854 1552.23596,511.179775 1552.23596,511.179775 L1537.40449,490.168539 C1537.40449,490.168539 1574.48315,456.179775 1641.8427,456.179775 C1712.91011,456.179775 1751.22472,495.730337 1751.22472,572.977528 L1751.22472,772.58427 L1725.26966,772.58427 L1725.26966,731.797753 C1725.26966,715.11236 1727.74157,703.988764 1727.74157,703.988764 L1726.50562,703.988764 C1727.1236,703.988764 1698.69663,780 1618.35955,780 C1568.30337,780 1513.30337,752.191011 1513.30337,690.393258 Z M1540.49438,688.539326 C1540.49438,721.292135 1567.06742,755.898876 1619.59551,755.898876 C1686.95506,755.898876 1725.26966,686.067416 1725.26966,624.88764 L1725.26966,608.202247 L1705.49438,608.202247 C1652.96629,608.202247 1540.49438,608.202247 1540.49438,688.539326 Z M1829.08989,735.505618 L1845.77528,715.730337 C1845.77528,715.730337 1880.38202,754.662921 1941.5618,754.662921 C1979.25843,754.662921 2012.62921,734.88764 2012.62921,696.573034 C2012.62921,618.089888 1842.68539,640.337079 1842.68539,539.606742 C1842.68539,484.606742 1889.03371,456.179775 1941.5618,456.179775 C2004.59551,456.179775 2033.02247,489.550562 2033.02247,489.550562 L2017.57303,510.561798 C2017.57303,510.561798 1992.23596,481.516854 1939.70787,481.516854 C1904.48315,481.516854 1869.8764,497.58427 1869.8764,537.752809 C1869.8764,618.089888 2039.82022,593.988764 2039.82022,696.573034 C2039.82022,746.011236 1997.79775,780 1940.94382,780 C1866.16854,780 1829.08989,735.505618 1829.08989,735.505618 Z M2134.98876,660.730337 L2134.98876,488.932584 L2094.20225,488.932584 L2094.20225,465.449438 L2134.98876,465.449438 L2134.98876,377.696629 L2160.94382,377.696629 L2160.94382,465.449438 L2241.89888,465.449438 L2241.89888,488.932584 L2160.94382,488.932584 L2160.94382,658.876404 C2160.94382,740.449438 2209.76404,750.955056 2234.48315,750.955056 C2243.13483,750.955056 2248.69663,749.719101 2248.69663,749.719101 L2248.69663,773.820225 C2248.69663,773.820225 2242.51685,775.05618 2233.24719,775.05618 C2201.11236,775.05618 2134.98876,763.314607 2134.98876,660.730337 Z M2316.67416,385.11236 L2316.67416,340 L2347.57303,340 L2347.57303,385.11236 L2316.67416,385.11236 Z M2319.14607,772.58427 L2319.14607,463.595506 L2345.10112,463.595506 L2345.10112,772.58427 L2319.14607,772.58427 Z M2466.22472,772.58427 L2466.22472,340 L2684.37079,340 L2684.37079,364.719101 L2492.79775,364.719101 L2492.79775,545.168539 L2658.41573,545.168539 L2658.41573,569.88764 L2492.79775,569.88764 L2492.79775,772.58427 L2466.22472,772.58427 Z M2764.70787,710.168539 L2764.70787,340 L2790.66292,340 L2790.66292,702.134831 C2790.66292,745.393258 2812.91011,750.337079 2827.1236,750.337079 C2832.06742,750.337079 2836.39326,749.719101 2836.39326,749.719101 L2836.39326,773.820225 C2836.39326,773.820225 2830.83146,775.05618 2825.26966,775.05618 C2807.34831,775.05618 2764.70787,768.258427 2764.70787,710.168539 Z M2887.06742,616.235955 C2887.06742,526.011236 2958.75281,456.179775 3047.1236,456.179775 C3135.49438,456.179775 3207.17978,526.011236 3207.17978,616.235955 C3207.17978,708.314607 3135.49438,780 3047.1236,780 C2958.75281,780 2887.06742,708.314607 2887.06742,616.235955 Z M2914.25843,616.235955 C2914.25843,694.719101 2973.58427,754.662921 3047.1236,754.662921 C3120.66292,754.662921 3179.98876,694.719101 3179.98876,616.235955 C3179.98876,539.606742 3120.66292,481.516854 3047.1236,481.516854 C2973.58427,481.516854 2914.25843,539.606742 2914.25843,616.235955 Z M3360.4382,772.58427 L3251.67416,463.595506 L3279.48315,463.595506 L3363.52809,705.842697 C3368.47191,720.674157 3374.03371,739.213483 3374.03371,739.213483 L3375.26966,739.213483 C3375.26966,739.213483 3380.83146,720.674157 3385.77528,705.842697 L3470.4382,464.831461 L3499.48315,464.831461 L3584.14607,705.842697 C3589.08989,720.674157 3594.65169,739.213483 3594.65169,739.213483 L3595.88764,739.213483 C3595.88764,739.213483 3600.83146,721.292135 3606.39326,705.842697 L3690.4382,463.595506 L3718.24719,463.595506 L3609.48315,772.58427 L3581.67416,772.58427 L3495.77528,532.808989 C3490.21348,517.977528 3485.26966,499.438202 3485.26966,499.438202 L3484.03371,499.438202 C3484.03371,499.438202 3479.08989,517.977528 3473.52809,532.808989 L3388.24719,772.58427 L3360.4382,772.58427 Z" id="ElastiFlow" fill="#212121"></path>
    </g>
</svg>